<mxfile host="app.diagrams.net" modified="2021-09-07T04:12:45.101Z" agent="5.0 (Windows NT 10.0; Win64; x64) AppleWebKit/537.36 (KHTML, like Gecko) Chrome/92.0.4515.159 Safari/537.36" etag="FGuQ36Rfa3d6KWr1iGfl" version="15.0.6" type="github">
  <diagram id="U_PKdXWOrFhI4SzXQnFA" name="Page-1">
    <mxGraphModel dx="1278" dy="1716" grid="1" gridSize="10" guides="1" tooltips="1" connect="1" arrows="1" fold="1" page="1" pageScale="1" pageWidth="827" pageHeight="1169" math="0" shadow="0">
      <root>
        <mxCell id="0" />
        <mxCell id="1" parent="0" />
        <mxCell id="Z-sAlvfeTEPHqOCeGgNx-1" value="customers" style="swimlane;childLayout=stackLayout;horizontal=1;startSize=30;horizontalStack=0;rounded=1;fontSize=14;fontStyle=0;strokeWidth=2;resizeParent=0;resizeLast=1;shadow=0;dashed=0;align=center;" vertex="1" parent="1">
          <mxGeometry x="10" y="100" width="160" height="120" as="geometry" />
        </mxCell>
        <mxCell id="Z-sAlvfeTEPHqOCeGgNx-2" value="first_name(string)&#xa;last_name(string)&#xa;email(string)&#xa;phone_number(string)" style="align=left;strokeColor=none;fillColor=none;spacingLeft=4;fontSize=12;verticalAlign=top;resizable=0;rotatable=0;part=1;" vertex="1" parent="Z-sAlvfeTEPHqOCeGgNx-1">
          <mxGeometry y="30" width="160" height="90" as="geometry" />
        </mxCell>
        <mxCell id="Z-sAlvfeTEPHqOCeGgNx-3" value="movies" style="swimlane;childLayout=stackLayout;horizontal=1;startSize=30;horizontalStack=0;rounded=1;fontSize=14;fontStyle=0;strokeWidth=2;resizeParent=0;resizeLast=1;shadow=0;dashed=0;align=center;" vertex="1" parent="1">
          <mxGeometry x="360" y="100" width="160" height="120" as="geometry" />
        </mxCell>
        <mxCell id="Z-sAlvfeTEPHqOCeGgNx-4" value="name(string)&#xa;digital_barcode(string)&#xa;daily_rental_rate(float)&#xa;" style="align=left;strokeColor=none;fillColor=none;spacingLeft=4;fontSize=12;verticalAlign=top;resizable=0;rotatable=0;part=1;" vertex="1" parent="Z-sAlvfeTEPHqOCeGgNx-3">
          <mxGeometry y="30" width="160" height="90" as="geometry" />
        </mxCell>
        <mxCell id="Z-sAlvfeTEPHqOCeGgNx-14" value="rent_info" style="swimlane;childLayout=stackLayout;horizontal=1;startSize=30;horizontalStack=0;rounded=1;fontSize=14;fontStyle=0;strokeWidth=2;resizeParent=0;resizeLast=1;shadow=0;dashed=0;align=center;" vertex="1" parent="1">
          <mxGeometry x="180" y="390" width="160" height="120" as="geometry" />
        </mxCell>
        <mxCell id="Z-sAlvfeTEPHqOCeGgNx-15" value="return_date(date)&#xa;rent_date(date)&#xa;" style="align=left;strokeColor=none;fillColor=none;spacingLeft=4;fontSize=12;verticalAlign=top;resizable=0;rotatable=0;part=1;" vertex="1" parent="Z-sAlvfeTEPHqOCeGgNx-14">
          <mxGeometry y="30" width="160" height="90" as="geometry" />
        </mxCell>
        <mxCell id="Z-sAlvfeTEPHqOCeGgNx-17" value="" style="edgeStyle=entityRelationEdgeStyle;fontSize=12;html=1;endArrow=ERoneToMany;exitX=0;exitY=0.5;exitDx=0;exitDy=0;entryX=1;entryY=0.25;entryDx=0;entryDy=0;" edge="1" parent="1" source="Z-sAlvfeTEPHqOCeGgNx-4" target="Z-sAlvfeTEPHqOCeGgNx-15">
          <mxGeometry width="100" height="100" relative="1" as="geometry">
            <mxPoint x="440" y="330" as="sourcePoint" />
            <mxPoint x="680" y="230" as="targetPoint" />
          </mxGeometry>
        </mxCell>
        <mxCell id="Z-sAlvfeTEPHqOCeGgNx-20" value="status" style="swimlane;childLayout=stackLayout;horizontal=1;startSize=30;horizontalStack=0;rounded=1;fontSize=14;fontStyle=0;strokeWidth=2;resizeParent=0;resizeLast=1;shadow=0;dashed=0;align=center;" vertex="1" parent="1">
          <mxGeometry x="580" y="250" width="160" height="120" as="geometry" />
        </mxCell>
        <mxCell id="Z-sAlvfeTEPHqOCeGgNx-21" value="in_stack&#xa;out_stack&#xa;lost" style="align=left;strokeColor=none;fillColor=none;spacingLeft=4;fontSize=12;verticalAlign=top;resizable=0;rotatable=0;part=1;" vertex="1" parent="Z-sAlvfeTEPHqOCeGgNx-20">
          <mxGeometry y="30" width="160" height="90" as="geometry" />
        </mxCell>
        <mxCell id="Z-sAlvfeTEPHqOCeGgNx-22" value="" style="edgeStyle=entityRelationEdgeStyle;fontSize=12;html=1;endArrow=ERoneToMany;" edge="1" parent="1" source="Z-sAlvfeTEPHqOCeGgNx-4" target="Z-sAlvfeTEPHqOCeGgNx-21">
          <mxGeometry width="100" height="100" relative="1" as="geometry">
            <mxPoint x="460" y="230" as="sourcePoint" />
            <mxPoint x="490" y="340" as="targetPoint" />
          </mxGeometry>
        </mxCell>
        <mxCell id="Z-sAlvfeTEPHqOCeGgNx-25" value="return_status" style="swimlane;childLayout=stackLayout;horizontal=1;startSize=30;horizontalStack=0;rounded=1;fontSize=14;fontStyle=0;strokeWidth=2;resizeParent=0;resizeLast=1;shadow=0;dashed=0;align=center;" vertex="1" parent="1">
          <mxGeometry x="10" y="590" width="160" height="120" as="geometry" />
        </mxCell>
        <mxCell id="Z-sAlvfeTEPHqOCeGgNx-26" value="lost&#xa;returned" style="align=left;strokeColor=none;fillColor=none;spacingLeft=4;fontSize=12;verticalAlign=top;resizable=0;rotatable=0;part=1;" vertex="1" parent="Z-sAlvfeTEPHqOCeGgNx-25">
          <mxGeometry y="30" width="160" height="90" as="geometry" />
        </mxCell>
        <mxCell id="Z-sAlvfeTEPHqOCeGgNx-31" value="user" style="swimlane;childLayout=stackLayout;horizontal=1;startSize=30;horizontalStack=0;rounded=1;fontSize=14;fontStyle=0;strokeWidth=2;resizeParent=0;resizeLast=1;shadow=0;dashed=0;align=center;" vertex="1" parent="1">
          <mxGeometry x="40" y="-120" width="160" height="120" as="geometry" />
        </mxCell>
        <mxCell id="Z-sAlvfeTEPHqOCeGgNx-32" value="user_name(string)&#xa;password(string)" style="align=left;strokeColor=none;fillColor=none;spacingLeft=4;fontSize=12;verticalAlign=top;resizable=0;rotatable=0;part=1;" vertex="1" parent="Z-sAlvfeTEPHqOCeGgNx-31">
          <mxGeometry y="30" width="160" height="90" as="geometry" />
        </mxCell>
        <mxCell id="Z-sAlvfeTEPHqOCeGgNx-42" value="coupon" style="swimlane;childLayout=stackLayout;horizontal=1;startSize=30;horizontalStack=0;rounded=1;fontSize=14;fontStyle=0;strokeWidth=2;resizeParent=0;resizeLast=1;shadow=0;dashed=0;align=center;" vertex="1" parent="1">
          <mxGeometry x="350" y="590" width="160" height="120" as="geometry" />
        </mxCell>
        <mxCell id="Z-sAlvfeTEPHqOCeGgNx-45" value="code&#xa;description&#xa;discount" style="align=left;strokeColor=none;fillColor=none;spacingLeft=4;fontSize=12;verticalAlign=top;resizable=0;rotatable=0;part=1;" vertex="1" parent="Z-sAlvfeTEPHqOCeGgNx-42">
          <mxGeometry y="30" width="160" height="90" as="geometry" />
        </mxCell>
        <mxCell id="Z-sAlvfeTEPHqOCeGgNx-49" value="role" style="swimlane;childLayout=stackLayout;horizontal=1;startSize=30;horizontalStack=0;rounded=1;fontSize=14;fontStyle=0;strokeWidth=2;resizeParent=0;resizeLast=1;shadow=0;dashed=0;align=center;" vertex="1" parent="1">
          <mxGeometry x="430" y="-120" width="160" height="120" as="geometry" />
        </mxCell>
        <mxCell id="Z-sAlvfeTEPHqOCeGgNx-50" value="name(string)" style="align=left;strokeColor=none;fillColor=none;spacingLeft=4;fontSize=12;verticalAlign=top;resizable=0;rotatable=0;part=1;" vertex="1" parent="Z-sAlvfeTEPHqOCeGgNx-49">
          <mxGeometry y="30" width="160" height="90" as="geometry" />
        </mxCell>
        <mxCell id="Z-sAlvfeTEPHqOCeGgNx-54" value="" style="edgeStyle=entityRelationEdgeStyle;fontSize=12;html=1;endArrow=ERone;startArrow=ERmany;endFill=0;" edge="1" parent="1" source="Z-sAlvfeTEPHqOCeGgNx-32" target="Z-sAlvfeTEPHqOCeGgNx-50">
          <mxGeometry width="100" height="100" relative="1" as="geometry">
            <mxPoint x="340" y="130" as="sourcePoint" />
            <mxPoint x="440" y="30" as="targetPoint" />
          </mxGeometry>
        </mxCell>
        <mxCell id="Z-sAlvfeTEPHqOCeGgNx-55" value="belongs to" style="edgeLabel;html=1;align=center;verticalAlign=middle;resizable=0;points=[];" vertex="1" connectable="0" parent="Z-sAlvfeTEPHqOCeGgNx-54">
          <mxGeometry x="-0.033" relative="1" as="geometry">
            <mxPoint as="offset" />
          </mxGeometry>
        </mxCell>
        <mxCell id="Z-sAlvfeTEPHqOCeGgNx-61" value="" style="edgeStyle=entityRelationEdgeStyle;fontSize=12;html=1;endArrow=ERoneToMany;entryX=0;entryY=0.5;entryDx=0;entryDy=0;" edge="1" parent="1" source="Z-sAlvfeTEPHqOCeGgNx-26" target="Z-sAlvfeTEPHqOCeGgNx-15">
          <mxGeometry width="100" height="100" relative="1" as="geometry">
            <mxPoint x="340" y="730" as="sourcePoint" />
            <mxPoint x="440" y="630" as="targetPoint" />
          </mxGeometry>
        </mxCell>
        <mxCell id="Z-sAlvfeTEPHqOCeGgNx-64" value="" style="edgeStyle=entityRelationEdgeStyle;fontSize=12;html=1;endArrow=ERoneToMany;entryX=0.003;entryY=0.369;entryDx=0;entryDy=0;entryPerimeter=0;" edge="1" parent="1" source="Z-sAlvfeTEPHqOCeGgNx-2" target="Z-sAlvfeTEPHqOCeGgNx-15">
          <mxGeometry width="100" height="100" relative="1" as="geometry">
            <mxPoint x="340" y="430" as="sourcePoint" />
            <mxPoint x="440" y="330" as="targetPoint" />
          </mxGeometry>
        </mxCell>
        <mxCell id="Z-sAlvfeTEPHqOCeGgNx-69" value="" style="edgeStyle=entityRelationEdgeStyle;fontSize=12;html=1;endArrow=ERzeroToOne;startArrow=ERmany;endFill=1;" edge="1" parent="1" source="Z-sAlvfeTEPHqOCeGgNx-15" target="Z-sAlvfeTEPHqOCeGgNx-45">
          <mxGeometry width="100" height="100" relative="1" as="geometry">
            <mxPoint x="460" y="730" as="sourcePoint" />
            <mxPoint x="560" y="630" as="targetPoint" />
          </mxGeometry>
        </mxCell>
      </root>
    </mxGraphModel>
  </diagram>
</mxfile>
